<svg width="16" height="17" viewBox="0 0 16 17" fill="none" xmlns="http://www.w3.org/2000/svg">
    <g clip-path="url(#clip0_4258_3718)">
    <path d="M14.8413 11.9909C14.4034 11.2309 13.8817 9.79171 13.8817 7.25094V6.72502C13.8809 3.44502 11.2608 0.756866 8.04003 0.732422H7.99876C6.42596 0.734644 4.94749 1.35242 3.83754 2.47168C2.72685 3.59094 2.11659 5.0776 2.11881 6.65835V7.25094C2.11881 9.79171 1.59699 11.2309 1.15847 11.9917C1.05529 12.1702 1.00001 12.3739 1.00001 12.5798C0.998535 12.8962 1.12014 13.1946 1.34273 13.4191C1.56531 13.6435 1.86011 13.768 2.17777 13.7695H5.05141C5.05141 15.4035 6.37362 16.7324 7.9995 16.7324C9.62532 16.7324 10.9475 15.4035 10.9475 13.7695H13.8242C14.0298 13.7695 14.2325 13.7139 14.4094 13.6109C14.682 13.4524 14.8773 13.1969 14.9592 12.8917C15.041 12.5858 14.999 12.2658 14.8413 11.9909ZM8.00024 15.5473C7.02515 15.5473 6.23138 14.7495 6.23138 13.7695H9.76908C9.76908 14.7495 8.97528 15.5473 8.00024 15.5473ZM5.64913 12.5842C5.64913 12.5842 5.64398 12.5842 5.64103 12.5842C5.63808 12.5842 5.63587 12.5842 5.63292 12.5842H2.17924C2.68926 11.6984 3.29804 10.0539 3.29804 7.2502V6.6576C3.29657 5.39242 3.78447 4.2028 4.67259 3.30798C5.5607 2.41242 6.74288 1.91835 8.0017 1.91687H8.03266C10.6078 1.93687 12.7024 4.09316 12.7024 6.72427V7.2502C12.7024 10.0539 13.3105 11.6984 13.8227 12.5835L5.64913 12.5842Z" fill="#212121"/>
    <path fill-rule="evenodd" clip-rule="evenodd" d="M8.55116 3.56569C8.56292 3.2898 8.79611 3.07567 9.07201 3.08743C9.74281 3.11602 10.3562 3.38506 10.7983 3.94299C11.2295 4.48722 11.4581 5.25571 11.4854 6.21846C11.4932 6.4945 11.2758 6.7246 10.9998 6.73243C10.7237 6.74025 10.4936 6.52282 10.4858 6.24679C10.4622 5.41314 10.2664 4.88196 10.0145 4.56404C9.77351 4.25982 9.44491 4.10423 9.02942 4.08652C8.75353 4.07477 8.53941 3.84158 8.55116 3.56569Z" fill="#212121"/>
    </g>
    <defs>
    <clipPath id="clip0_4258_3718">
    <rect width="16" height="16" fill="white" transform="translate(0 0.732422)"/>
    </clipPath>
    </defs>
</svg>
