<svg width="16" height="17" viewBox="0 0 16 17" fill="none" xmlns="http://www.w3.org/2000/svg">
<g clip-path="url(#clip0_4258_3709)">
<path fill-rule="evenodd" clip-rule="evenodd" d="M8.31039 2.37335C8.31039 2.01944 8.59728 1.73255 8.95119 1.73255C11.7232 1.73255 13.5176 2.89703 14.5976 4.39077C15.6541 5.85196 16 7.58623 16 8.75188C16 9.10431 15.7143 9.39 15.3619 9.39H9.31039C8.7581 9.39 8.31039 8.94229 8.31039 8.39V2.37335ZM10.6608 3.20479C10.0943 3.06404 9.59199 3.53337 9.59199 4.11715V7.11376C9.59199 7.66604 10.0397 8.11376 10.592 8.11376H13.5577C14.1555 8.11376 14.6241 7.58928 14.4576 7.01517C14.2754 6.38653 13.9865 5.72977 13.5576 5.13648C12.9429 4.28633 12.0262 3.544 10.6608 3.20479Z" fill="#212121"/>
<path fill-rule="evenodd" clip-rule="evenodd" d="M5.81043 2.07628C5.9737 2.38896 5.85152 2.77424 5.53753 2.93683C3.0284 4.50783 1.68457 6.28502 1.41556 8.11376C1.14336 9.96421 1.82655 11.7633 3.12103 13.1809C4.413 14.5957 6.21958 15.4009 8.27264 15.3105C10.3146 15.2206 12.3475 14.2251 14.8102 11.5451C15.0306 11.2694 15.4337 11.2237 15.7107 11.4432C15.9876 11.6626 16.0334 12.0641 15.813 12.3399C13.4468 15.3007 10.8033 16.6154 8.3155 16.7249C5.83876 16.834 3.61405 15.7429 2.09653 14.0811C0.581516 12.422 -0.262336 10.1562 0.0730866 7.87599C0.411703 5.57404 1.9355 3.36354 4.94627 1.80452C5.26026 1.64193 5.64716 1.7636 5.81043 2.07628Z" fill="#212121"/>
</g>
<defs>
<clipPath id="clip0_4258_3709">
<rect width="16" height="16" fill="white" transform="translate(0 0.732422)"/>
</clipPath>
</defs>
</svg>
