<svg width="16" height="16" viewBox="0 0 16 16" fill="none" xmlns="http://www.w3.org/2000/svg">
<path fill-rule="evenodd" clip-rule="evenodd" d="M4.5128 10.7247L6.55623 12.2515C6.87441 12.4894 7.11061 12.5727 7.25337 12.5938C7.38361 12.6131 7.43441 12.583 7.45202 12.5713C7.48591 12.5489 7.77401 12.2977 7.77401 11.306V3.69563C7.77401 2.69793 7.48502 2.44891 7.45331 2.42802C7.43659 2.41701 7.38616 2.38676 7.25526 2.40633C7.11184 2.42776 6.8752 2.51164 6.55644 2.74992L4.5128 4.2769L4.49959 4.28626C4.09632 4.57172 3.60526 4.75573 3.0804 4.75573H2.08605C1.61108 4.75573 1.48054 4.89239 1.44921 4.92974C1.4013 4.98686 1.26554 5.20462 1.26554 5.84278V9.15883C1.26554 9.79699 1.4013 10.0147 1.44921 10.0719C1.48054 10.1092 1.61108 10.2459 2.08605 10.2459H3.0804C3.60526 10.2459 4.09632 10.4299 4.49959 10.7154L4.5128 10.7247ZM0 9.15883V5.84278C0 4.18475 0.69535 3.35573 2.08605 3.35573H3.0804C3.33768 3.35573 3.59496 3.26454 3.81747 3.10702L5.84789 1.58992C7.60017 0.280069 9.03955 1.22515 9.03955 3.69563V11.306C9.03955 13.7682 7.60017 14.7215 5.84789 13.4117L3.81747 11.8946C3.59496 11.7371 3.33768 11.6459 3.0804 11.6459H2.08605C0.69535 11.6459 0 10.8169 0 9.15883Z" fill="#212121"/>
<path fill-rule="evenodd" clip-rule="evenodd" d="M11.3717 3.44003C11.6513 3.20805 12.0479 3.2707 12.2576 3.57996C13.6316 5.60636 13.6316 8.39364 12.2576 10.42C12.0479 10.7293 11.6513 10.792 11.3717 10.56C11.0922 10.328 11.0355 9.88922 11.2452 9.57996C12.2817 8.05136 12.2817 5.94864 11.2452 4.42004C11.0355 4.11078 11.0922 3.67201 11.3717 3.44003Z" fill="#212121"/>
<path fill-rule="evenodd" clip-rule="evenodd" d="M13.1359 1.47981C13.3956 1.22112 13.7957 1.24431 14.0296 1.5316C16.6568 4.75939 16.6568 9.24061 14.0296 12.4684C13.7957 12.7557 13.3956 12.7789 13.1359 12.5202C12.8762 12.2615 12.8552 11.8189 13.0891 11.5316C15.2829 8.83631 15.2829 5.16369 13.0891 2.4684C12.8552 2.1811 12.8762 1.7385 13.1359 1.47981Z" fill="#212121"/>
</svg>
