<svg xmlns="http://www.w3.org/2000/svg">
    <symbol id="bells" viewBox="0 0 16 17">
        <g clip-path="url(#clip0_4258_3718)">
        <path d="M14.8413 11.9909C14.4034 11.2309 13.8817 9.79171 13.8817 7.25094V6.72502C13.8809 3.44502 11.2608 0.756866 8.04003 0.732422H7.99876C6.42596 0.734644 4.94749 1.35242 3.83754 2.47168C2.72685 3.59094 2.11659 5.0776 2.11881 6.65835V7.25094C2.11881 9.79171 1.59699 11.2309 1.15847 11.9917C1.05529 12.1702 1.00001 12.3739 1.00001 12.5798C0.998535 12.8962 1.12014 13.1946 1.34273 13.4191C1.56531 13.6435 1.86011 13.768 2.17777 13.7695H5.05141C5.05141 15.4035 6.37362 16.7324 7.9995 16.7324C9.62532 16.7324 10.9475 15.4035 10.9475 13.7695H13.8242C14.0298 13.7695 14.2325 13.7139 14.4094 13.6109C14.682 13.4524 14.8773 13.1969 14.9592 12.8917C15.041 12.5858 14.999 12.2658 14.8413 11.9909ZM8.00024 15.5473C7.02515 15.5473 6.23138 14.7495 6.23138 13.7695H9.76908C9.76908 14.7495 8.97528 15.5473 8.00024 15.5473ZM5.64913 12.5842C5.64913 12.5842 5.64398 12.5842 5.64103 12.5842C5.63808 12.5842 5.63587 12.5842 5.63292 12.5842H2.17924C2.68926 11.6984 3.29804 10.0539 3.29804 7.2502V6.6576C3.29657 5.39242 3.78447 4.2028 4.67259 3.30798C5.5607 2.41242 6.74288 1.91835 8.0017 1.91687H8.03266C10.6078 1.93687 12.7024 4.09316 12.7024 6.72427V7.2502C12.7024 10.0539 13.3105 11.6984 13.8227 12.5835L5.64913 12.5842Z" fill="#212121"/>
        <path fill-rule="evenodd" clip-rule="evenodd" d="M8.55116 3.56569C8.56292 3.2898 8.79611 3.07567 9.07201 3.08743C9.74281 3.11602 10.3562 3.38506 10.7983 3.94299C11.2295 4.48722 11.4581 5.25571 11.4854 6.21846C11.4932 6.4945 11.2758 6.7246 10.9998 6.73243C10.7237 6.74025 10.4936 6.52282 10.4858 6.24679C10.4622 5.41314 10.2664 4.88196 10.0145 4.56404C9.77351 4.25982 9.44491 4.10423 9.02942 4.08652C8.75353 4.07477 8.53941 3.84158 8.55116 3.56569Z" fill="#212121"/>
        </g>
        <defs>
        <clipPath id="clip0_4258_3718">
        <rect width="16" height="16" fill="white" transform="translate(0 0.732422)"/>
        </clipPath>
        </defs>
    </symbol>

    <symbol id="dashboard" viewBox="0 0 16 17">
        <g clip-path="url(#clip0_4258_3709)">
        <path fill-rule="evenodd" clip-rule="evenodd" d="M8.31039 2.37335C8.31039 2.01944 8.59728 1.73255 8.95119 1.73255C11.7232 1.73255 13.5176 2.89703 14.5976 4.39077C15.6541 5.85196 16 7.58623 16 8.75188C16 9.10431 15.7143 9.39 15.3619 9.39H9.31039C8.7581 9.39 8.31039 8.94229 8.31039 8.39V2.37335ZM10.6608 3.20479C10.0943 3.06404 9.59199 3.53337 9.59199 4.11715V7.11376C9.59199 7.66604 10.0397 8.11376 10.592 8.11376H13.5577C14.1555 8.11376 14.6241 7.58928 14.4576 7.01517C14.2754 6.38653 13.9865 5.72977 13.5576 5.13648C12.9429 4.28633 12.0262 3.544 10.6608 3.20479Z" fill="#212121"/>
        <path fill-rule="evenodd" clip-rule="evenodd" d="M5.81043 2.07628C5.9737 2.38896 5.85152 2.77424 5.53753 2.93683C3.0284 4.50783 1.68457 6.28502 1.41556 8.11376C1.14336 9.96421 1.82655 11.7633 3.12103 13.1809C4.413 14.5957 6.21958 15.4009 8.27264 15.3105C10.3146 15.2206 12.3475 14.2251 14.8102 11.5451C15.0306 11.2694 15.4337 11.2237 15.7107 11.4432C15.9876 11.6626 16.0334 12.0641 15.813 12.3399C13.4468 15.3007 10.8033 16.6154 8.3155 16.7249C5.83876 16.834 3.61405 15.7429 2.09653 14.0811C0.581516 12.422 -0.262336 10.1562 0.0730866 7.87599C0.411703 5.57404 1.9355 3.36354 4.94627 1.80452C5.26026 1.64193 5.64716 1.7636 5.81043 2.07628Z" fill="#212121"/>
        </g>
        <defs>
        <clipPath id="clip0_4258_3709">
        <rect width="16" height="16" fill="white" transform="translate(0 0.732422)"/>
        </clipPath>
        </defs>
    </symbol>

    <symbol id="sounds" viewBox="0 0 16 16">
        <path fill-rule="evenodd" clip-rule="evenodd" d="M4.5128 10.7247L6.55623 12.2515C6.87441 12.4894 7.11061 12.5727 7.25337 12.5938C7.38361 12.6131 7.43441 12.583 7.45202 12.5713C7.48591 12.5489 7.77401 12.2977 7.77401 11.306V3.69563C7.77401 2.69793 7.48502 2.44891 7.45331 2.42802C7.43659 2.41701 7.38616 2.38676 7.25526 2.40633C7.11184 2.42776 6.8752 2.51164 6.55644 2.74992L4.5128 4.2769L4.49959 4.28626C4.09632 4.57172 3.60526 4.75573 3.0804 4.75573H2.08605C1.61108 4.75573 1.48054 4.89239 1.44921 4.92974C1.4013 4.98686 1.26554 5.20462 1.26554 5.84278V9.15883C1.26554 9.79699 1.4013 10.0147 1.44921 10.0719C1.48054 10.1092 1.61108 10.2459 2.08605 10.2459H3.0804C3.60526 10.2459 4.09632 10.4299 4.49959 10.7154L4.5128 10.7247ZM0 9.15883V5.84278C0 4.18475 0.69535 3.35573 2.08605 3.35573H3.0804C3.33768 3.35573 3.59496 3.26454 3.81747 3.10702L5.84789 1.58992C7.60017 0.280069 9.03955 1.22515 9.03955 3.69563V11.306C9.03955 13.7682 7.60017 14.7215 5.84789 13.4117L3.81747 11.8946C3.59496 11.7371 3.33768 11.6459 3.0804 11.6459H2.08605C0.69535 11.6459 0 10.8169 0 9.15883Z" fill="#212121"/>
        <path fill-rule="evenodd" clip-rule="evenodd" d="M11.3717 3.44003C11.6513 3.20805 12.0479 3.2707 12.2576 3.57996C13.6316 5.60636 13.6316 8.39364 12.2576 10.42C12.0479 10.7293 11.6513 10.792 11.3717 10.56C11.0922 10.328 11.0355 9.88922 11.2452 9.57996C12.2817 8.05136 12.2817 5.94864 11.2452 4.42004C11.0355 4.11078 11.0922 3.67201 11.3717 3.44003Z" fill="#212121"/>
        <path fill-rule="evenodd" clip-rule="evenodd" d="M13.1359 1.47981C13.3956 1.22112 13.7957 1.24431 14.0296 1.5316C16.6568 4.75939 16.6568 9.24061 14.0296 12.4684C13.7957 12.7557 13.3956 12.7789 13.1359 12.5202C12.8762 12.2615 12.8552 11.8189 13.0891 11.5316C15.2829 8.83631 15.2829 5.16369 13.0891 2.4684C12.8552 2.1811 12.8762 1.7385 13.1359 1.47981Z" fill="#212121"/>
    </symbol>
</svg>
